Output #0, mpeg, to '03.mpg':
    Stream #0:0: Video: mpeg1video, yuv420p, 640x480, q=2-31, 400 kb/s, 25 tbn
[mpeg @ 0x55555c3e7700] VBV buffer size not set, using default size of 230KB
If you want the mpeg file to be compliant to some specification
Like DVD, VCD or others, make sure you set the correct buffer size
视频编码
pts:0 pts_time:0 dts:-3600 dts_time:-0.04 duration:0 duration_time:0 stream_index:0
pts:3600 pts_time:0.04 dts:0 dts_time:0 duration:0 duration_time:0 stream_index:0
pts:7200 pts_time:0.08 dts:3600 dts_time:0.04 duration:0 duration_time:0 stream_index:0
pts:10800 pts_time:0.12 dts:7200 dts_time:0.08 duration:0 duration_time:0 stream_index:0
pts:14400 pts_time:0.16 dts:10800 dts_time:0.12 duration:0 duration_time:0 stream_index:0
pts:18000 pts_time:0.2 dts:14400 dts_time:0.16 duration:0 duration_time:0 stream_index:0
pts:21600 pts_time:0.24 dts:18000 dts_time:0.2 duration:0 duration_time:0 stream_index:0
pts:25200 pts_time:0.28 dts:21600 dts_time:0.24 duration:0 duration_time:0 stream_index:0
pts:28800 pts_time:0.32 dts:25200 dts_time:0.28 duration:0 duration_time:0 stream_index:0
pts:32400 pts_time:0.36 dts:28800 dts_time:0.32 duration:0 duration_time:0 stream_index:0
pts:36000 pts_time:0.4 dts:32400 dts_time:0.36 duration:0 duration_time:0 stream_index:0
[mpeg @ 0x55555c3e7700] buffer underflow st=0 bufi=2241 size=2692
pts:39600 pts_time:0.44 dts:36000 dts_time:0.4 duration:0 duration_time:0 stream_index:0
[mpeg @ 0x55555c3e7700] buffer underflow st=0 bufi=1581 size=14935
[mpeg @ 0x55555c3e7700] buffer underflow st=0 bufi=3622 size=14935
[mpeg @ 0x55555c3e7700] buffer underflow st=0 bufi=5663 size=14935
[mpeg @ 0x55555c3e7700] buffer underflow st=0 bufi=7704 size=14935
[mpeg @ 0x55555c3e7700] buffer underflow st=0 bufi=9745 size=14935
[mpeg @ 0x55555c3e7700] buffer underflow st=0 bufi=11786 size=14935
[mpeg @ 0x55555c3e7700] buffer underflow st=0 bufi=13827 size=14935
pts:43200 pts_time:0.48 dts:39600 dts_time:0.44 duration:0 duration_time:0 stream_index:0
[mpeg @ 0x55555c3e7700] buffer underflow st=0 bufi=924 size=7053
[mpeg @ 0x55555c3e7700] buffer underflow st=0 bufi=2965 size=7053
[mpeg @ 0x55555c3e7700] buffer underflow st=0 bufi=5006 size=7053
pts:46800 pts_time:0.52 dts:43200 dts_time:0.48 duration:0 duration_time:0 stream_index:0
[mpeg @ 0x55555c3e7700] buffer underflow st=0 bufi=7047 size=7053
pts:50400 pts_time:0.56 dts:46800 dts_time:0.52 duration:0 duration_time:0 stream_index:0
[mpeg @ 0x55555c3e7700] buffer underflow st=0 bufi=238 size=1761
pts:54000 pts_time:0.6 dts:50400 dts_time:0.56 duration:0 duration_time:0 stream_index:0
[mpeg @ 0x55555c3e7700] buffer underflow st=0 bufi=509 size=2552
pts:57600 pts_time:0.64 dts:54000 dts_time:0.6 duration:0 duration_time:0 stream_index:0
[mpeg @ 0x55555c3e7700] buffer underflow st=0 bufi=2550 size=2552
pts:61200 pts_time:0.68 dts:57600 dts_time:0.64 duration:0 duration_time:0 stream_index:0
[mpeg @ 0x55555c3e7700] buffer underflow st=0 bufi=226 size=4439
[mpeg @ 0x55555c3e7700] buffer underflow st=0 bufi=2267 size=4439
[mpeg @ 0x55555c3e7700] buffer underflow st=0 bufi=4308 size=4439
pts:64800 pts_time:0.72 dts:61200 dts_time:0.68 duration:0 duration_time:0 stream_index:0
[mpeg @ 0x55555c3e7700] buffer underflow st=0 bufi=1901 size=4897
[mpeg @ 0x55555c3e7700] buffer underflow st=0 bufi=3942 size=4897
pts:68400 pts_time:0.76 dts:64800 dts_time:0.72 duration:0 duration_time:0 stream_index:0
[mpeg @ 0x55555c3e7700] buffer underflow st=0 bufi=1077 size=1620
pts:72000 pts_time:0.8 dts:68400 dts_time:0.76 duration:0 duration_time:0 stream_index:0
pts:75600 pts_time:0.84 dts:72000 dts_time:0.8 duration:0 duration_time:0 stream_index:0
[mpeg @ 0x55555c3e7700] buffer underflow st=0 bufi=275 size=1636
pts:79200 pts_time:0.88 dts:75600 dts_time:0.84 duration:0 duration_time:0 stream_index:0
[mpeg @ 0x55555c3e7700] buffer underflow st=0 bufi=671 size=2410
pts:82800 pts_time:0.92 dts:79200 dts_time:0.88 duration:0 duration_time:0 stream_index:0
[mpeg @ 0x55555c3e7700] buffer underflow st=0 bufi=293 size=15386
[mpeg @ 0x55555c3e7700] buffer underflow st=0 bufi=2334 size=15386
[mpeg @ 0x55555c3e7700] buffer underflow st=0 bufi=4375 size=15386
[mpeg @ 0x55555c3e7700] buffer underflow st=0 bufi=6416 size=15386
[mpeg @ 0x55555c3e7700] buffer underflow st=0 bufi=8457 size=15386
[mpeg @ 0x55555c3e7700] buffer underflow st=0 bufi=10486 size=15386
[mpeg @ 0x55555c3e7700] buffer underflow st=0 bufi=12527 size=15386
[mpeg @ 0x55555c3e7700] buffer underflow st=0 bufi=14568 size=15386
pts:86400 pts_time:0.96 dts:82800 dts_time:0.92 duration:0 duration_time:0 stream_index:0
pts:90000 pts_time:1 dts:86400 dts_time:0.96 duration:0 duration_time:0 stream_index:0
[mpeg @ 0x55555c3e7700] buffer underflow st=0 bufi=634 size=3060
[mpeg @ 0x55555c3e7700] buffer underflow st=0 bufi=2675 size=3060
pts:93600 pts_time:1.04 dts:90000 dts_time:1 duration:0 duration_time:0 stream_index:0
[mpeg @ 0x55555c3e7700] buffer underflow st=0 bufi=1647 size=4909
[mpeg @ 0x55555c3e7700] buffer underflow st=0 bufi=3688 size=4909
pts:97200 pts_time:1.08 dts:93600 dts_time:1.04 duration:0 duration_time:0 stream_index:0
[mpeg @ 0x55555c3e7700] buffer underflow st=0 bufi=811 size=4636
[mpeg @ 0x55555c3e7700] buffer underflow st=0 bufi=2852 size=4636
pts:100800 pts_time:1.12 dts:97200 dts_time:1.08 duration:0 duration_time:0 stream_index:0
[mpeg @ 0x55555c3e7700] buffer underflow st=0 bufi=248 size=835
pts:104400 pts_time:1.16 dts:100800 dts_time:1.12 duration:0 duration_time:0 stream_index:0
pts:108000 pts_time:1.2 dts:104400 dts_time:1.16 duration:0 duration_time:0 stream_index:0
[mpeg @ 0x55555c3e7700] buffer underflow st=0 bufi=570 size=2481
pts:111600 pts_time:1.24 dts:108000 dts_time:1.2 duration:0 duration_time:0 stream_index:0
[mpeg @ 0x55555c3e7700] buffer underflow st=0 bufi=121 size=1514
pts:115200 pts_time:1.28 dts:111600 dts_time:1.24 duration:0 duration_time:0 stream_index:0
[mpeg @ 0x55555c3e7700] buffer underflow st=0 bufi=639 size=1590
pts:118800 pts_time:1.32 dts:115200 dts_time:1.28 duration:0 duration_time:0 stream_index:0
[mpeg @ 0x55555c3e7700] buffer underflow st=0 bufi=1081 size=1153
pts:122400 pts_time:1.36 dts:118800 dts_time:1.32 duration:0 duration_time:0 stream_index:0
[mpeg @ 0x55555c3e7700] buffer underflow st=0 bufi=1960 size=1983
pts:126000 pts_time:1.4 dts:122400 dts_time:1.36 duration:0 duration_time:0 stream_index:0
[mpeg @ 0x55555c3e7700] buffer underflow st=0 bufi=2009 size=15623
[mpeg @ 0x55555c3e7700] buffer underflow st=0 bufi=4050 size=15623
[mpeg @ 0x55555c3e7700] buffer underflow st=0 bufi=6091 size=15623
[mpeg @ 0x55555c3e7700] buffer underflow st=0 bufi=8132 size=15623
[mpeg @ 0x55555c3e7700] buffer underflow st=0 bufi=10173 size=15623
[mpeg @ 0x55555c3e7700] buffer underflow st=0 bufi=12214 size=15623
[mpeg @ 0x55555c3e7700] buffer underflow st=0 bufi=14255 size=15623
pts:129600 pts_time:1.44 dts:126000 dts_time:1.4 duration:0 duration_time:0 stream_index:0
[mpeg @ 0x55555c3e7700] buffer underflow st=0 bufi=664 size=2326
pts:133200 pts_time:1.48 dts:129600 dts_time:1.44 duration:0 duration_time:0 stream_index:0
[mpeg @ 0x55555c3e7700] buffer underflow st=0 bufi=370 size=652
pts:136800 pts_time:1.52 dts:133200 dts_time:1.48 duration:0 duration_time:0 stream_index:0
[mpeg @ 0x55555c3e7700] buffer underflow st=0 bufi=1750 size=2381
pts:140400 pts_time:1.56 dts:136800 dts_time:1.52 duration:0 duration_time:0 stream_index:0
pts:144000 pts_time:1.6 dts:140400 dts_time:1.56 duration:0 duration_time:0 stream_index:0
[mpeg @ 0x55555c3e7700] buffer underflow st=0 bufi=194 size=1937
pts:147600 pts_time:1.64 dts:144000 dts_time:1.6 duration:0 duration_time:0 stream_index:0
pts:151200 pts_time:1.68 dts:147600 dts_time:1.64 duration:0 duration_time:0 stream_index:0
[mpeg @ 0x55555c3e7700] buffer underflow st=0 bufi=95 size=2431
[mpeg @ 0x55555c3e7700] buffer underflow st=0 bufi=2136 size=2431
pts:154800 pts_time:1.72 dts:151200 dts_time:1.68 duration:0 duration_time:0 stream_index:0
[mpeg @ 0x55555c3e7700] buffer underflow st=0 bufi=1737 size=3763
pts:158400 pts_time:1.76 dts:154800 dts_time:1.72 duration:0 duration_time:0 stream_index:0
[mpeg @ 0x55555c3e7700] buffer underflow st=0 bufi=6 size=3821
[mpeg @ 0x55555c3e7700] buffer underflow st=0 bufi=2047 size=3821
pts:162000 pts_time:1.8 dts:158400 dts_time:1.76 duration:0 duration_time:0 stream_index:0
[mpeg @ 0x55555c3e7700] buffer underflow st=0 bufi=258 size=4428
[mpeg @ 0x55555c3e7700] buffer underflow st=0 bufi=2299 size=4428
[mpeg @ 0x55555c3e7700] buffer underflow st=0 bufi=4340 size=4428
pts:165600 pts_time:1.84 dts:162000 dts_time:1.8 duration:0 duration_time:0 stream_index:0
pts:169200 pts_time:1.88 dts:165600 dts_time:1.84 duration:0 duration_time:0 stream_index:0
[mpeg @ 0x55555c3e7700] buffer underflow st=0 bufi=1251 size=11304
[mpeg @ 0x55555c3e7700] buffer underflow st=0 bufi=3292 size=11304
[mpeg @ 0x55555c3e7700] buffer underflow st=0 bufi=5333 size=11304
[mpeg @ 0x55555c3e7700] buffer underflow st=0 bufi=7374 size=11304
[mpeg @ 0x55555c3e7700] buffer underflow st=0 bufi=9415 size=11304
pts:172800 pts_time:1.92 dts:169200 dts_time:1.88 duration:0 duration_time:0 stream_index:0
[mpeg @ 0x55555c3e7700] buffer underflow st=0 bufi=143 size=610
pts:176400 pts_time:1.96 dts:172800 dts_time:1.92 duration:0 duration_time:0 stream_index:0
[mpeg @ 0x55555c3e7700] buffer underflow st=0 bufi=1565 size=1788
pts:180000 pts_time:2 dts:176400 dts_time:1.96 duration:0 duration_time:0 stream_index:0
pts:183600 pts_time:2.04 dts:180000 dts_time:2 duration:0 duration_time:0 stream_index:0
[mpeg @ 0x55555c3e7700] buffer underflow st=0 bufi=781 size=1052
pts:187200 pts_time:2.08 dts:183600 dts_time:2.04 duration:0 duration_time:0 stream_index:0
[mpeg @ 0x55555c3e7700] buffer underflow st=0 bufi=1761 size=1914
pts:190800 pts_time:2.12 dts:187200 dts_time:2.08 duration:0 duration_time:0 stream_index:0
pts:194400 pts_time:2.16 dts:190800 dts_time:2.12 duration:0 duration_time:0 stream_index:0
[mpeg @ 0x55555c3e7700] buffer underflow st=0 bufi=491 size=5351
[mpeg @ 0x55555c3e7700] buffer underflow st=0 bufi=2532 size=5351
[mpeg @ 0x55555c3e7700] buffer underflow st=0 bufi=4573 size=5351
pts:198000 pts_time:2.2 dts:194400 dts_time:2.16 duration:0 duration_time:0 stream_index:0
[mpeg @ 0x55555c3e7700] buffer underflow st=0 bufi=1254 size=1886
pts:201600 pts_time:2.24 dts:198000 dts_time:2.2 duration:0 duration_time:0 stream_index:0
pts:205200 pts_time:2.28 dts:201600 dts_time:2.24 duration:0 duration_time:0 stream_index:0
[mpeg @ 0x55555c3e7700] buffer underflow st=0 bufi=69 size=1103
pts:208800 pts_time:2.32 dts:205200 dts_time:2.28 duration:0 duration_time:0 stream_index:0
pts:212400 pts_time:2.36 dts:208800 dts_time:2.32 duration:0 duration_time:0 stream_index:0
[mpeg @ 0x55555c3e7700] buffer underflow st=0 bufi=4 size=15969
[mpeg @ 0x55555c3e7700] buffer underflow st=0 bufi=2045 size=15969
[mpeg @ 0x55555c3e7700] buffer underflow st=0 bufi=4086 size=15969
[mpeg @ 0x55555c3e7700] buffer underflow st=0 bufi=6127 size=15969
[mpeg @ 0x55555c3e7700] buffer underflow st=0 bufi=8156 size=15969
[mpeg @ 0x55555c3e7700] buffer underflow st=0 bufi=10197 size=15969
[mpeg @ 0x55555c3e7700] buffer underflow st=0 bufi=12238 size=15969
[mpeg @ 0x55555c3e7700] buffer underflow st=0 bufi=14279 size=15969
pts:216000 pts_time:2.4 dts:212400 dts_time:2.36 duration:0 duration_time:0 stream_index:0
pts:219600 pts_time:2.44 dts:216000 dts_time:2.4 duration:0 duration_time:0 stream_index:0
[mpeg @ 0x55555c3e7700] buffer underflow st=0 bufi=20 size=2558
[mpeg @ 0x55555c3e7700] buffer underflow st=0 bufi=2061 size=2558
pts:223200 pts_time:2.48 dts:219600 dts_time:2.44 duration:0 duration_time:0 stream_index:0
pts:226800 pts_time:2.52 dts:223200 dts_time:2.48 duration:0 duration_time:0 stream_index:0
[mpeg @ 0x55555c3e7700] buffer underflow st=0 bufi=1364 size=2439
pts:230400 pts_time:2.56 dts:226800 dts_time:2.52 duration:0 duration_time:0 stream_index:0
[mpeg @ 0x55555c3e7700] buffer underflow st=0 bufi=957 size=4636
[mpeg @ 0x55555c3e7700] buffer underflow st=0 bufi=2998 size=4636
pts:234000 pts_time:2.6 dts:230400 dts_time:2.56 duration:0 duration_time:0 stream_index:0
[mpeg @ 0x55555c3e7700] buffer underflow st=0 bufi=394 size=3645
[mpeg @ 0x55555c3e7700] buffer underflow st=0 bufi=2435 size=3645
pts:237600 pts_time:2.64 dts:234000 dts_time:2.6 duration:0 duration_time:0 stream_index:0
pts:241200 pts_time:2.68 dts:237600 dts_time:2.64 duration:0 duration_time:0 stream_index:0
[mpeg @ 0x55555c3e7700] buffer underflow st=0 bufi=417 size=1048
pts:244800 pts_time:2.72 dts:241200 dts_time:2.68 duration:0 duration_time:0 stream_index:0
[mpeg @ 0x55555c3e7700] buffer underflow st=0 bufi=1401 size=2507
pts:248400 pts_time:2.76 dts:244800 dts_time:2.72 duration:0 duration_time:0 stream_index:0
[mpeg @ 0x55555c3e7700] buffer underflow st=0 bufi=926 size=991
pts:252000 pts_time:2.8 dts:248400 dts_time:2.76 duration:0 duration_time:0 stream_index:0
[mpeg @ 0x55555c3e7700] buffer underflow st=0 bufi=1967 size=2477
pts:255600 pts_time:2.84 dts:252000 dts_time:2.8 duration:0 duration_time:0 stream_index:0
[mpeg @ 0x55555c3e7700] buffer underflow st=0 bufi=1522 size=13109
[mpeg @ 0x55555c3e7700] buffer underflow st=0 bufi=3563 size=13109
[mpeg @ 0x55555c3e7700] buffer underflow st=0 bufi=5604 size=13109
[mpeg @ 0x55555c3e7700] buffer underflow st=0 bufi=7645 size=13109
[mpeg @ 0x55555c3e7700] buffer underflow st=0 bufi=9686 size=13109
[mpeg @ 0x55555c3e7700] buffer underflow st=0 bufi=11727 size=13109
pts:259200 pts_time:2.88 dts:255600 dts_time:2.84 duration:0 duration_time:0 stream_index:0
[mpeg @ 0x55555c3e7700] buffer underflow st=0 bufi=650 size=1400
pts:262800 pts_time:2.92 dts:259200 dts_time:2.88 duration:0 duration_time:0 stream_index:0
pts:266400 pts_time:2.96 dts:262800 dts_time:2.92 duration:0 duration_time:0 stream_index:0
[mpeg @ 0x55555c3e7700] buffer underflow st=0 bufi=269 size=5205
[mpeg @ 0x55555c3e7700] buffer underflow st=0 bufi=2310 size=5205
[mpeg @ 0x55555c3e7700] buffer underflow st=0 bufi=4351 size=5205
pts:270000 pts_time:3 dts:266400 dts_time:2.96 duration:0 duration_time:0 stream_index:0
[mpeg @ 0x55555c3e7700] buffer underflow st=0 bufi=1178 size=4212
[mpeg @ 0x55555c3e7700] buffer underflow st=0 bufi=3219 size=4212
pts:273600 pts_time:3.04 dts:270000 dts_time:3 duration:0 duration_time:0 stream_index:0
[mpeg @ 0x55555c3e7700] buffer underflow st=0 bufi=1039 size=3587
[mpeg @ 0x55555c3e7700] buffer underflow st=0 bufi=3080 size=3587
pts:277200 pts_time:3.08 dts:273600 dts_time:3.04 duration:0 duration_time:0 stream_index:0
[mpeg @ 0x55555c3e7700] buffer underflow st=0 bufi=1525 size=5334
[mpeg @ 0x55555c3e7700] buffer underflow st=0 bufi=3566 size=5334
pts:280800 pts_time:3.12 dts:277200 dts_time:3.08 duration:0 duration_time:0 stream_index:0
[mpeg @ 0x55555c3e7700] buffer underflow st=0 bufi=264 size=7451
[mpeg @ 0x55555c3e7700] buffer underflow st=0 bufi=2305 size=7451
[mpeg @ 0x55555c3e7700] buffer underflow st=0 bufi=4346 size=7451
[mpeg @ 0x55555c3e7700] buffer underflow st=0 bufi=6387 size=7451
pts:284400 pts_time:3.16 dts:280800 dts_time:3.12 duration:0 duration_time:0 stream_index:0
[mpeg @ 0x55555c3e7700] buffer underflow st=0 bufi=968 size=5652
[mpeg @ 0x55555c3e7700] buffer underflow st=0 bufi=3009 size=5652
[mpeg @ 0x55555c3e7700] buffer underflow st=0 bufi=5050 size=5652
pts:288000 pts_time:3.2 dts:284400 dts_time:3.16 duration:0 duration_time:0 stream_index:0
[mpeg @ 0x55555c3e7700] buffer underflow st=0 bufi=1430 size=4944
[mpeg @ 0x55555c3e7700] buffer underflow st=0 bufi=3471 size=4944
pts:291600 pts_time:3.24 dts:288000 dts_time:3.2 duration:0 duration_time:0 stream_index:0
[mpeg @ 0x55555c3e7700] buffer underflow st=0 bufi=559 size=6132
[mpeg @ 0x55555c3e7700] buffer underflow st=0 bufi=2600 size=6132
[mpeg @ 0x55555c3e7700] buffer underflow st=0 bufi=4641 size=6132
pts:295200 pts_time:3.28 dts:291600 dts_time:3.24 duration:0 duration_time:0 stream_index:0
[mpeg @ 0x55555c3e7700] buffer underflow st=0 bufi=541 size=4446
[mpeg @ 0x55555c3e7700] buffer underflow st=0 bufi=2582 size=4446
pts:298800 pts_time:3.32 dts:295200 dts_time:3.28 duration:0 duration_time:0 stream_index:0
[mpeg @ 0x55555c3e7700] buffer underflow st=0 bufi=168 size=2862
[mpeg @ 0x55555c3e7700] buffer underflow st=0 bufi=2209 size=2862
pts:302400 pts_time:3.36 dts:298800 dts_time:3.32 duration:0 duration_time:0 stream_index:0
[mpeg @ 0x55555c3e7700] buffer underflow st=0 bufi=1379 size=2670
pts:306000 pts_time:3.4 dts:302400 dts_time:3.36 duration:0 duration_time:0 stream_index:0
[mpeg @ 0x55555c3e7700] buffer underflow st=0 bufi=741 size=2774
pts:309600 pts_time:3.44 dts:306000 dts_time:3.4 duration:0 duration_time:0 stream_index:0
[mpeg @ 0x55555c3e7700] buffer underflow st=0 bufi=8 size=2655
[mpeg @ 0x55555c3e7700] buffer underflow st=0 bufi=2049 size=2655
pts:313200 pts_time:3.48 dts:309600 dts_time:3.44 duration:0 duration_time:0 stream_index:0
[mpeg @ 0x55555c3e7700] buffer underflow st=0 bufi=1426 size=3006
pts:316800 pts_time:3.52 dts:313200 dts_time:3.48 duration:0 duration_time:0 stream_index:0
[mpeg @ 0x55555c3e7700] buffer underflow st=0 bufi=440 size=2911
[mpeg @ 0x55555c3e7700] buffer underflow st=0 bufi=2481 size=2911
pts:320400 pts_time:3.56 dts:316800 dts_time:3.52 duration:0 duration_time:0 stream_index:0
[mpeg @ 0x55555c3e7700] buffer underflow st=0 bufi=1602 size=1997
pts:324000 pts_time:3.6 dts:320400 dts_time:3.56 duration:0 duration_time:0 stream_index:0
[mpeg @ 0x55555c3e7700] buffer underflow st=0 bufi=1637 size=2046
pts:327600 pts_time:3.64 dts:324000 dts_time:3.6 duration:0 duration_time:0 stream_index:0
pts:331200 pts_time:3.68 dts:327600 dts_time:3.64 duration:0 duration_time:0 stream_index:0
[mpeg @ 0x55555c3e7700] buffer underflow st=0 bufi=329 size=2605
[mpeg @ 0x55555c3e7700] buffer underflow st=0 bufi=2370 size=2605
pts:334800 pts_time:3.72 dts:331200 dts_time:3.68 duration:0 duration_time:0 stream_index:0
[mpeg @ 0x55555c3e7700] buffer underflow st=0 bufi=1797 size=7732
[mpeg @ 0x55555c3e7700] buffer underflow st=0 bufi=3838 size=7732
[mpeg @ 0x55555c3e7700] buffer underflow st=0 bufi=5879 size=7732
pts:338400 pts_time:3.76 dts:334800 dts_time:3.72 duration:0 duration_time:0 stream_index:0
[mpeg @ 0x55555c3e7700] buffer underflow st=0 bufi=179 size=2768
[mpeg @ 0x55555c3e7700] buffer underflow st=0 bufi=2220 size=2768
pts:342000 pts_time:3.8 dts:338400 dts_time:3.76 duration:0 duration_time:0 stream_index:0
[mpeg @ 0x55555c3e7700] buffer underflow st=0 bufi=1484 size=2401
pts:345600 pts_time:3.84 dts:342000 dts_time:3.8 duration:0 duration_time:0 stream_index:0
[mpeg @ 0x55555c3e7700] buffer underflow st=0 bufi=1115 size=2565
pts:349200 pts_time:3.88 dts:345600 dts_time:3.84 duration:0 duration_time:0 stream_index:0
[mpeg @ 0x55555c3e7700] buffer underflow st=0 bufi=582 size=3160
[mpeg @ 0x55555c3e7700] buffer underflow st=0 bufi=2623 size=3160
pts:352800 pts_time:3.92 dts:349200 dts_time:3.88 duration:0 duration_time:0 stream_index:0
[mpeg @ 0x55555c3e7700] buffer underflow st=0 bufi=1495 size=4179
[mpeg @ 0x55555c3e7700] buffer underflow st=0 bufi=3536 size=4179
pts:356400 pts_time:3.96 dts:352800 dts_time:3.92 duration:0 duration_time:0 stream_index:0
pts:360000 pts_time:4 dts:356400 dts_time:3.96 duration:0 duration_time:0 stream_index:0
[mpeg @ 0x55555c3e7700] buffer underflow st=0 bufi=1255 size=16850
[mpeg @ 0x55555c3e7700] buffer underflow st=0 bufi=3296 size=16850
[mpeg @ 0x55555c3e7700] buffer underflow st=0 bufi=5337 size=16850
[mpeg @ 0x55555c3e7700] buffer underflow st=0 bufi=7378 size=16850
[mpeg @ 0x55555c3e7700] buffer underflow st=0 bufi=9419 size=16850
[mpeg @ 0x55555c3e7700] buffer underflow st=0 bufi=11460 size=16850
[mpeg @ 0x55555c3e7700] buffer underflow st=0 bufi=13501 size=16850
[mpeg @ 0x55555c3e7700] buffer underflow st=0 bufi=15542 size=16850
pts:363600 pts_time:4.04 dts:360000 dts_time:4 duration:0 duration_time:0 stream_index:0
[mpeg @ 0x55555c3e7700] buffer underflow st=0 bufi=724 size=3260
[mpeg @ 0x55555c3e7700] buffer underflow st=0 bufi=2765 size=3260
pts:367200 pts_time:4.08 dts:363600 dts_time:4.04 duration:0 duration_time:0 stream_index:0
[mpeg @ 0x55555c3e7700] buffer underflow st=0 bufi=1537 size=4987
[mpeg @ 0x55555c3e7700] buffer underflow st=0 bufi=3578 size=4987
pts:370800 pts_time:4.12 dts:367200 dts_time:4.08 duration:0 duration_time:0 stream_index:0
[mpeg @ 0x55555c3e7700] buffer underflow st=0 bufi=623 size=2757
[mpeg @ 0x55555c3e7700] buffer underflow st=0 bufi=2664 size=2757
pts:374400 pts_time:4.16 dts:370800 dts_time:4.12 duration:0 duration_time:0 stream_index:0
[mpeg @ 0x55555c3e7700] buffer underflow st=0 bufi=1939 size=3160
pts:378000 pts_time:4.2 dts:374400 dts_time:4.16 duration:0 duration_time:0 stream_index:0
[mpeg @ 0x55555c3e7700] buffer underflow st=0 bufi=811 size=18075
[mpeg @ 0x55555c3e7700] buffer underflow st=0 bufi=2852 size=18075
[mpeg @ 0x55555c3e7700] buffer underflow st=0 bufi=4893 size=18075
[mpeg @ 0x55555c3e7700] buffer underflow st=0 bufi=6934 size=18075
[mpeg @ 0x55555c3e7700] buffer underflow st=0 bufi=8975 size=18075
[mpeg @ 0x55555c3e7700] buffer underflow st=0 bufi=11016 size=18075
[mpeg @ 0x55555c3e7700] buffer underflow st=0 bufi=13057 size=18075
[mpeg @ 0x55555c3e7700] buffer underflow st=0 bufi=15098 size=18075
[mpeg @ 0x55555c3e7700] buffer underflow st=0 bufi=17139 size=18075
pts:381600 pts_time:4.24 dts:378000 dts_time:4.2 duration:0 duration_time:0 stream_index:0
[mpeg @ 0x55555c3e7700] buffer underflow st=0 bufi=1096 size=3000
pts:385200 pts_time:4.28 dts:381600 dts_time:4.24 duration:0 duration_time:0 stream_index:0
[mpeg @ 0x55555c3e7700] buffer underflow st=0 bufi=128 size=2653
[mpeg @ 0x55555c3e7700] buffer underflow st=0 bufi=2169 size=2653
pts:388800 pts_time:4.32 dts:385200 dts_time:4.28 duration:0 duration_time:0 stream_index:0
[mpeg @ 0x55555c3e7700] buffer underflow st=0 bufi=1548 size=2394
pts:392400 pts_time:4.36 dts:388800 dts_time:4.32 duration:0 duration_time:0 stream_index:0
[mpeg @ 0x55555c3e7700] buffer underflow st=0 bufi=1186 size=3284
[mpeg @ 0x55555c3e7700] buffer underflow st=0 bufi=3227 size=3284
pts:396000 pts_time:4.4 dts:392400 dts_time:4.36 duration:0 duration_time:0 stream_index:0
[mpeg @ 0x55555c3e7700] buffer underflow st=0 bufi=1975 size=2649
pts:399600 pts_time:4.44 dts:396000 dts_time:4.4 duration:0 duration_time:0 stream_index:0
[mpeg @ 0x55555c3e7700] buffer underflow st=0 bufi=1358 size=2123
pts:403200 pts_time:4.48 dts:399600 dts_time:4.44 duration:0 duration_time:0 stream_index:0
[mpeg @ 0x55555c3e7700] buffer underflow st=0 bufi=1267 size=2850
pts:406800 pts_time:4.52 dts:403200 dts_time:4.48 duration:0 duration_time:0 stream_index:0
[mpeg @ 0x55555c3e7700] buffer underflow st=0 bufi=449 size=2815
[mpeg @ 0x55555c3e7700] buffer underflow st=0 bufi=2490 size=2815
pts:410400 pts_time:4.56 dts:406800 dts_time:4.52 duration:0 duration_time:0 stream_index:0
[mpeg @ 0x55555c3e7700] buffer underflow st=0 bufi=1695 size=2921
pts:414000 pts_time:4.6 dts:410400 dts_time:4.56 duration:0 duration_time:0 stream_index:0
[mpeg @ 0x55555c3e7700] buffer underflow st=0 bufi=806 size=1962
pts:417600 pts_time:4.64 dts:414000 dts_time:4.6 duration:0 duration_time:0 stream_index:0
[mpeg @ 0x55555c3e7700] buffer underflow st=0 bufi=876 size=3094
[mpeg @ 0x55555c3e7700] buffer underflow st=0 bufi=2917 size=3094
pts:421200 pts_time:4.68 dts:417600 dts_time:4.64 duration:0 duration_time:0 stream_index:0
[mpeg @ 0x55555c3e7700] buffer underflow st=0 bufi=1855 size=11557
[mpeg @ 0x55555c3e7700] buffer underflow st=0 bufi=3896 size=11557
[mpeg @ 0x55555c3e7700] buffer underflow st=0 bufi=5937 size=11557
[mpeg @ 0x55555c3e7700] buffer underflow st=0 bufi=7978 size=11557
[mpeg @ 0x55555c3e7700] buffer underflow st=0 bufi=10019 size=11557
pts:424800 pts_time:4.72 dts:421200 dts_time:4.68 duration:0 duration_time:0 stream_index:0
[mpeg @ 0x55555c3e7700] buffer underflow st=0 bufi=494 size=2136
pts:428400 pts_time:4.76 dts:424800 dts_time:4.72 duration:0 duration_time:0 stream_index:0
[mpeg @ 0x55555c3e7700] buffer underflow st=0 bufi=390 size=2083
pts:432000 pts_time:4.8 dts:428400 dts_time:4.76 duration:0 duration_time:0 stream_index:0
[mpeg @ 0x55555c3e7700] buffer underflow st=0 bufi=339 size=2917
[mpeg @ 0x55555c3e7700] buffer underflow st=0 bufi=2380 size=2917
pts:435600 pts_time:4.84 dts:432000 dts_time:4.8 duration:0 duration_time:0 stream_index:0
[mpeg @ 0x55555c3e7700] buffer underflow st=0 bufi=1495 size=2199
pts:439200 pts_time:4.88 dts:435600 dts_time:4.84 duration:0 duration_time:0 stream_index:0
[mpeg @ 0x55555c3e7700] buffer underflow st=0 bufi=1328 size=3129
pts:442800 pts_time:4.92 dts:439200 dts_time:4.88 duration:0 duration_time:0 stream_index:0
[mpeg @ 0x55555c3e7700] buffer underflow st=0 bufi=231 size=2098
pts:446400 pts_time:4.96 dts:442800 dts_time:4.92 duration:0 duration_time:0 stream_index:0
[mpeg @ 0x55555c3e7700] buffer underflow st=0 bufi=165 size=2412
[mpeg @ 0x55555c3e7700] buffer underflow st=0 bufi=2206 size=2412
pts:450000 pts_time:5 dts:446400 dts_time:4.96 duration:0 duration_time:0 stream_index:0
[mpeg @ 0x55555c3e7700] buffer underflow st=0 bufi=1826 size=2124
pts:453600 pts_time:5.04 dts:450000 dts_time:5 duration:0 duration_time:0 stream_index:0
[mpeg @ 0x55555c3e7700] buffer underflow st=0 bufi=1734 size=2485
pts:457200 pts_time:5.08 dts:453600 dts_time:5.04 duration:0 duration_time:0 stream_index:0
[mpeg @ 0x55555c3e7700] buffer underflow st=0 bufi=1281 size=2032
pts:460800 pts_time:5.12 dts:457200 dts_time:5.08 duration:0 duration_time:0 stream_index:0
[mpeg @ 0x55555c3e7700] buffer underflow st=0 bufi=1281 size=2577
pts:464400 pts_time:5.16 dts:460800 dts_time:5.12 duration:0 duration_time:0 stream_index:0
[mpeg @ 0x55555c3e7700] buffer underflow st=0 bufi=736 size=11085
[mpeg @ 0x55555c3e7700] buffer underflow st=0 bufi=2777 size=11085
[mpeg @ 0x55555c3e7700] buffer underflow st=0 bufi=4818 size=11085
[mpeg @ 0x55555c3e7700] buffer underflow st=0 bufi=6859 size=11085
[mpeg @ 0x55555c3e7700] buffer underflow st=0 bufi=8900 size=11085
[mpeg @ 0x55555c3e7700] buffer underflow st=0 bufi=10941 size=11085
pts:468000 pts_time:5.2 dts:464400 dts_time:5.16 duration:0 duration_time:0 stream_index:0
[mpeg @ 0x55555c3e7700] buffer underflow st=0 bufi=1888 size=3138
pts:471600 pts_time:5.24 dts:468000 dts_time:5.2 duration:0 duration_time:0 stream_index:0
[mpeg @ 0x55555c3e7700] buffer underflow st=0 bufi=782 size=1949
pts:475200 pts_time:5.28 dts:471600 dts_time:5.24 duration:0 duration_time:0 stream_index:0
[mpeg @ 0x55555c3e7700] buffer underflow st=0 bufi=865 size=3410
[mpeg @ 0x55555c3e7700] buffer underflow st=0 bufi=2906 size=3410
pts:478800 pts_time:5.32 dts:475200 dts_time:5.28 duration:0 duration_time:0 stream_index:0
[mpeg @ 0x55555c3e7700] buffer underflow st=0 bufi=1528 size=1992
pts:482400 pts_time:5.36 dts:478800 dts_time:5.32 duration:0 duration_time:0 stream_index:0
[mpeg @ 0x55555c3e7700] buffer underflow st=0 bufi=1568 size=3277
pts:486000 pts_time:5.4 dts:482400 dts_time:5.36 duration:0 duration_time:0 stream_index:0
[mpeg @ 0x55555c3e7700] buffer underflow st=0 bufi=323 size=1954
pts:489600 pts_time:5.44 dts:486000 dts_time:5.4 duration:0 duration_time:0 stream_index:0
[mpeg @ 0x55555c3e7700] buffer underflow st=0 bufi=401 size=2164
pts:493200 pts_time:5.48 dts:489600 dts_time:5.44 duration:0 duration_time:0 stream_index:0
[mpeg @ 0x55555c3e7700] buffer underflow st=0 bufi=269 size=3215
[mpeg @ 0x55555c3e7700] buffer underflow st=0 bufi=2310 size=3215
pts:496800 pts_time:5.52 dts:493200 dts_time:5.48 duration:0 duration_time:0 stream_index:0
[mpeg @ 0x55555c3e7700] buffer underflow st=0 bufi=1127 size=2107
pts:500400 pts_time:5.56 dts:496800 dts_time:5.52 duration:0 duration_time:0 stream_index:0
[mpeg @ 0x55555c3e7700] buffer underflow st=0 bufi=1052 size=3133
[mpeg @ 0x55555c3e7700] buffer underflow st=0 bufi=3093 size=3133
pts:504000 pts_time:5.6 dts:500400 dts_time:5.56 duration:0 duration_time:0 stream_index:0
[mpeg @ 0x55555c3e7700] buffer underflow st=0 bufi=1992 size=2406
pts:507600 pts_time:5.64 dts:504000 dts_time:5.6 duration:0 duration_time:0 stream_index:0
[mpeg @ 0x55555c3e7700] buffer underflow st=0 bufi=1618 size=9935
[mpeg @ 0x55555c3e7700] buffer underflow st=0 bufi=3659 size=9935
[mpeg @ 0x55555c3e7700] buffer underflow st=0 bufi=5700 size=9935
[mpeg @ 0x55555c3e7700] buffer underflow st=0 bufi=7741 size=9935
[mpeg @ 0x55555c3e7700] buffer underflow st=0 bufi=9782 size=9935
pts:511200 pts_time:5.68 dts:507600 dts_time:5.64 duration:0 duration_time:0 stream_index:0
[mpeg @ 0x55555c3e7700] buffer underflow st=0 bufi=1879 size=2051
pts:514800 pts_time:5.72 dts:511200 dts_time:5.68 duration:0 duration_time:0 stream_index:0
[mpeg @ 0x55555c3e7700] buffer underflow st=0 bufi=1860 size=2429
pts:518400 pts_time:5.76 dts:514800 dts_time:5.72 duration:0 duration_time:0 stream_index:0
[mpeg @ 0x55555c3e7700] buffer underflow st=0 bufi=1463 size=2593
pts:522000 pts_time:5.8 dts:518400 dts_time:5.76 duration:0 duration_time:0 stream_index:0
[mpeg @ 0x55555c3e7700] buffer underflow st=0 bufi=902 size=2061
pts:525600 pts_time:5.84 dts:522000 dts_time:5.8 duration:0 duration_time:0 stream_index:0
[mpeg @ 0x55555c3e7700] buffer underflow st=0 bufi=873 size=2015
pts:529200 pts_time:5.88 dts:525600 dts_time:5.84 duration:0 duration_time:0 stream_index:0
[mpeg @ 0x55555c3e7700] buffer underflow st=0 bufi=863 size=2640
pts:532800 pts_time:5.92 dts:529200 dts_time:5.88 duration:0 duration_time:0 stream_index:0
[mpeg @ 0x55555c3e7700] buffer underflow st=0 bufi=255 size=2234
pts:536400 pts_time:5.96 dts:532800 dts_time:5.92 duration:0 duration_time:0 stream_index:0
[mpeg @ 0x55555c3e7700] buffer underflow st=0 bufi=53 size=2286
[mpeg @ 0x55555c3e7700] buffer underflow st=0 bufi=2094 size=2286
pts:540000 pts_time:6 dts:536400 dts_time:5.96 duration:0 duration_time:0 stream_index:0
[mpeg @ 0x55555c3e7700] buffer underflow st=0 bufi=1840 size=2020
pts:543600 pts_time:6.04 dts:540000 dts_time:6 duration:0 duration_time:0 stream_index:0
[mpeg @ 0x55555c3e7700] buffer underflow st=0 bufi=1852 size=2003
pts:547200 pts_time:6.08 dts:543600 dts_time:6.04 duration:0 duration_time:0 stream_index:0
[mpeg @ 0x55555c3e7700] buffer underflow st=0 bufi=1881 size=2139
pts:550800 pts_time:6.12 dts:547200 dts_time:6.08 duration:0 duration_time:0 stream_index:0
[mpeg @ 0x55555c3e7700] buffer underflow st=0 bufi=1774 size=10426
[mpeg @ 0x55555c3e7700] buffer underflow st=0 bufi=3815 size=10426
[mpeg @ 0x55555c3e7700] buffer underflow st=0 bufi=5856 size=10426
[mpeg @ 0x55555c3e7700] buffer underflow st=0 bufi=7897 size=10426
[mpeg @ 0x55555c3e7700] buffer underflow st=0 bufi=9938 size=10426
pts:554400 pts_time:6.16 dts:550800 dts_time:6.12 duration:0 duration_time:0 stream_index:0
[mpeg @ 0x55555c3e7700] buffer underflow st=0 bufi=1544 size=2696
pts:558000 pts_time:6.2 dts:554400 dts_time:6.16 duration:0 duration_time:0 stream_index:0
[mpeg @ 0x55555c3e7700] buffer underflow st=0 bufi=880 size=1583
pts:561600 pts_time:6.24 dts:558000 dts_time:6.2 duration:0 duration_time:0 stream_index:0
[mpeg @ 0x55555c3e7700] buffer underflow st=0 bufi=1329 size=2847
pts:565200 pts_time:6.28 dts:561600 dts_time:6.24 duration:0 duration_time:0 stream_index:0
[mpeg @ 0x55555c3e7700] buffer underflow st=0 bufi=514 size=1649
pts:568800 pts_time:6.32 dts:565200 dts_time:6.28 duration:0 duration_time:0 stream_index:0
[mpeg @ 0x55555c3e7700] buffer underflow st=0 bufi=897 size=1941
pts:572400 pts_time:6.36 dts:568800 dts_time:6.32 duration:0 duration_time:0 stream_index:0
[mpeg @ 0x55555c3e7700] buffer underflow st=0 bufi=988 size=2404
pts:576000 pts_time:6.4 dts:572400 dts_time:6.36 duration:0 duration_time:0 stream_index:0
[mpeg @ 0x55555c3e7700] buffer underflow st=0 bufi=616 size=1878
pts:579600 pts_time:6.44 dts:576000 dts_time:6.4 duration:0 duration_time:0 stream_index:0
[mpeg @ 0x55555c3e7700] buffer underflow st=0 bufi=770 size=2516
pts:583200 pts_time:6.48 dts:579600 dts_time:6.44 duration:0 duration_time:0 stream_index:0
[mpeg @ 0x55555c3e7700] buffer underflow st=0 bufi=286 size=1707
pts:586800 pts_time:6.52 dts:583200 dts_time:6.48 duration:0 duration_time:0 stream_index:0
[mpeg @ 0x55555c3e7700] buffer underflow st=0 bufi=611 size=2420
pts:590400 pts_time:6.56 dts:586800 dts_time:6.52 duration:0 duration_time:0 stream_index:0
[mpeg @ 0x55555c3e7700] buffer underflow st=0 bufi=223 size=2160
pts:594000 pts_time:6.6 dts:590400 dts_time:6.56 duration:0 duration_time:0 stream_index:0
[mpeg @ 0x55555c3e7700] buffer underflow st=0 bufi=95 size=9935
[mpeg @ 0x55555c3e7700] buffer underflow st=0 bufi=2136 size=9935
[mpeg @ 0x55555c3e7700] buffer underflow st=0 bufi=4177 size=9935
[mpeg @ 0x55555c3e7700] buffer underflow st=0 bufi=6218 size=9935
[mpeg @ 0x55555c3e7700] buffer underflow st=0 bufi=8259 size=9935
pts:597600 pts_time:6.64 dts:594000 dts_time:6.6 duration:0 duration_time:0 stream_index:0
[mpeg @ 0x55555c3e7700] buffer underflow st=0 bufi=356 size=2418
[mpeg @ 0x55555c3e7700] buffer underflow st=0 bufi=2397 size=2418
pts:601200 pts_time:6.68 dts:597600 dts_time:6.64 duration:0 duration_time:0 stream_index:0
[mpeg @ 0x55555c3e7700] buffer underflow st=0 bufi=2011 size=2298
pts:604800 pts_time:6.72 dts:601200 dts_time:6.68 duration:0 duration_time:0 stream_index:0
[mpeg @ 0x55555c3e7700] buffer underflow st=0 bufi=1745 size=2568
pts:608400 pts_time:6.76 dts:604800 dts_time:6.72 duration:0 duration_time:0 stream_index:0
[mpeg @ 0x55555c3e7700] buffer underflow st=0 bufi=1209 size=1923
pts:612000 pts_time:6.8 dts:608400 dts_time:6.76 duration:0 duration_time:0 stream_index:0
[mpeg @ 0x55555c3e7700] buffer underflow st=0 bufi=1318 size=2469
pts:615600 pts_time:6.84 dts:612000 dts_time:6.8 duration:0 duration_time:0 stream_index:0
[mpeg @ 0x55555c3e7700] buffer underflow st=0 bufi=881 size=2259
pts:619200 pts_time:6.88 dts:615600 dts_time:6.84 duration:0 duration_time:0 stream_index:0
[mpeg @ 0x55555c3e7700] buffer underflow st=0 bufi=654 size=2101
pts:622800 pts_time:6.92 dts:619200 dts_time:6.88 duration:0 duration_time:0 stream_index:0
[mpeg @ 0x55555c3e7700] buffer underflow st=0 bufi=585 size=2371
pts:626400 pts_time:6.96 dts:622800 dts_time:6.92 duration:0 duration_time:0 stream_index:0
[mpeg @ 0x55555c3e7700] buffer underflow st=0 bufi=246 size=2008
pts:630000 pts_time:7 dts:626400 dts_time:6.96 duration:0 duration_time:0 stream_index:0
[mpeg @ 0x55555c3e7700] buffer underflow st=0 bufi=270 size=2146
pts:633600 pts_time:7.04 dts:630000 dts_time:7 duration:0 duration_time:0 stream_index:0
[mpeg @ 0x55555c3e7700] buffer underflow st=0 bufi=156 size=1887
pts:637200 pts_time:7.08 dts:633600 dts_time:7.04 duration:0 duration_time:0 stream_index:0
[mpeg @ 0x55555c3e7700] buffer underflow st=0 bufi=301 size=10480
[mpeg @ 0x55555c3e7700] buffer underflow st=0 bufi=2342 size=10480
[mpeg @ 0x55555c3e7700] buffer underflow st=0 bufi=4383 size=10480
[mpeg @ 0x55555c3e7700] buffer underflow st=0 bufi=6424 size=10480
[mpeg @ 0x55555c3e7700] buffer underflow st=0 bufi=8465 size=10480
pts:640800 pts_time:7.12 dts:637200 dts_time:7.08 duration:0 duration_time:0 stream_index:0
[mpeg @ 0x55555c3e7700] buffer underflow st=0 bufi=17 size=2723
[mpeg @ 0x55555c3e7700] buffer underflow st=0 bufi=2058 size=2723
pts:644400 pts_time:7.16 dts:640800 dts_time:7.12 duration:0 duration_time:0 stream_index:0
[mpeg @ 0x55555c3e7700] buffer underflow st=0 bufi=1367 size=1919
pts:648000 pts_time:7.2 dts:644400 dts_time:7.16 duration:0 duration_time:0 stream_index:0
[mpeg @ 0x55555c3e7700] buffer underflow st=0 bufi=1480 size=3553
[mpeg @ 0x55555c3e7700] buffer underflow st=0 bufi=3521 size=3553
pts:651600 pts_time:7.24 dts:648000 dts_time:7.2 duration:0 duration_time:0 stream_index:0
pts:655200 pts_time:7.28 dts:651600 dts_time:7.24 duration:0 duration_time:0 stream_index:0
[mpeg @ 0x55555c3e7700] buffer underflow st=0 bufi=15 size=2547
[mpeg @ 0x55555c3e7700] buffer underflow st=0 bufi=2056 size=2547
pts:658800 pts_time:7.32 dts:655200 dts_time:7.28 duration:0 duration_time:0 stream_index:0
[mpeg @ 0x55555c3e7700] buffer underflow st=0 bufi=1529 size=2643
pts:662400 pts_time:7.36 dts:658800 dts_time:7.32 duration:0 duration_time:0 stream_index:0
[mpeg @ 0x55555c3e7700] buffer underflow st=0 bufi=918 size=2360
pts:666000 pts_time:7.4 dts:662400 dts_time:7.36 duration:0 duration_time:0 stream_index:0
[mpeg @ 0x55555c3e7700] buffer underflow st=0 bufi=590 size=3260
[mpeg @ 0x55555c3e7700] buffer underflow st=0 bufi=2631 size=3260
pts:669600 pts_time:7.44 dts:666000 dts_time:7.4 duration:0 duration_time:0 stream_index:0
[mpeg @ 0x55555c3e7700] buffer underflow st=0 bufi=1403 size=2309
pts:673200 pts_time:7.48 dts:669600 dts_time:7.44 duration:0 duration_time:0 stream_index:0
[mpeg @ 0x55555c3e7700] buffer underflow st=0 bufi=1126 size=2942
pts:676800 pts_time:7.52 dts:673200 dts_time:7.48 duration:0 duration_time:0 stream_index:0
[mpeg @ 0x55555c3e7700] buffer underflow st=0 bufi=216 size=2869
[mpeg @ 0x55555c3e7700] buffer underflow st=0 bufi=2257 size=2869
pts:680400 pts_time:7.56 dts:676800 dts_time:7.52 duration:0 duration_time:0 stream_index:0
[mpeg @ 0x55555c3e7700] buffer underflow st=0 bufi=1420 size=10335
[mpeg @ 0x55555c3e7700] buffer underflow st=0 bufi=3461 size=10335
[mpeg @ 0x55555c3e7700] buffer underflow st=0 bufi=5502 size=10335
[mpeg @ 0x55555c3e7700] buffer underflow st=0 bufi=7543 size=10335
[mpeg @ 0x55555c3e7700] buffer underflow st=0 bufi=9584 size=10335
pts:684000 pts_time:7.6 dts:680400 dts_time:7.56 duration:0 duration_time:0 stream_index:0
[mpeg @ 0x55555c3e7700] buffer underflow st=0 bufi=1281 size=2573
pts:687600 pts_time:7.64 dts:684000 dts_time:7.6 duration:0 duration_time:0 stream_index:0
[mpeg @ 0x55555c3e7700] buffer underflow st=0 bufi=740 size=2641
pts:691200 pts_time:7.68 dts:687600 dts_time:7.64 duration:0 duration_time:0 stream_index:0
[mpeg @ 0x55555c3e7700] buffer underflow st=0 bufi=131 size=2198
[mpeg @ 0x55555c3e7700] buffer underflow st=0 bufi=2172 size=2198
pts:694800 pts_time:7.72 dts:691200 dts_time:7.68 duration:0 duration_time:0 stream_index:0
pts:698400 pts_time:7.76 dts:694800 dts_time:7.72 duration:0 duration_time:0 stream_index:0
[mpeg @ 0x55555c3e7700] buffer underflow st=0 bufi=300 size=1737
pts:702000 pts_time:7.8 dts:698400 dts_time:7.76 duration:0 duration_time:0 stream_index:0
[mpeg @ 0x55555c3e7700] buffer underflow st=0 bufi=595 size=2311
pts:705600 pts_time:7.84 dts:702000 dts_time:7.8 duration:0 duration_time:0 stream_index:0
[mpeg @ 0x55555c3e7700] buffer underflow st=0 bufi=316 size=2092
pts:709200 pts_time:7.88 dts:705600 dts_time:7.84 duration:0 duration_time:0 stream_index:0
[mpeg @ 0x55555c3e7700] buffer underflow st=0 bufi=256 size=1935
pts:712800 pts_time:7.92 dts:709200 dts_time:7.88 duration:0 duration_time:0 stream_index:0
[mpeg @ 0x55555c3e7700] buffer underflow st=0 bufi=353 size=1769
pts:716400 pts_time:7.96 dts:712800 dts_time:7.92 duration:0 duration_time:0 stream_index:0
[mpeg @ 0x55555c3e7700] buffer underflow st=0 bufi=616 size=1991
pts:720000 pts_time:8 dts:716400 dts_time:7.96 duration:0 duration_time:0 stream_index:0
[mpeg @ 0x55555c3e7700] buffer underflow st=0 bufi=657 size=2065
pts:723600 pts_time:8.04 dts:720000 dts_time:8 duration:0 duration_time:0 stream_index:0
[mpeg @ 0x55555c3e7700] buffer underflow st=0 bufi=624 size=10508
[mpeg @ 0x55555c3e7700] buffer underflow st=0 bufi=2665 size=10508
[mpeg @ 0x55555c3e7700] buffer underflow st=0 bufi=4706 size=10508
[mpeg @ 0x55555c3e7700] buffer underflow st=0 bufi=6747 size=10508
[mpeg @ 0x55555c3e7700] buffer underflow st=0 bufi=8788 size=10508
pts:727200 pts_time:8.08 dts:723600 dts_time:8.04 duration:0 duration_time:0 stream_index:0
[mpeg @ 0x55555c3e7700] buffer underflow st=0 bufi=312 size=2720
[mpeg @ 0x55555c3e7700] buffer underflow st=0 bufi=2353 size=2720
pts:730800 pts_time:8.12 dts:727200 dts_time:8.08 duration:0 duration_time:0 stream_index:0
pts:734400 pts_time:8.16 dts:730800 dts_time:8.12 duration:0 duration_time:0 stream_index:0
[mpeg @ 0x55555c3e7700] buffer underflow st=0 bufi=77 size=2990
[mpeg @ 0x55555c3e7700] buffer underflow st=0 bufi=2118 size=2990
pts:738000 pts_time:8.2 dts:734400 dts_time:8.16 duration:0 duration_time:0 stream_index:0
[mpeg @ 0x55555c3e7700] buffer underflow st=0 bufi=1160 size=1623
pts:741600 pts_time:8.24 dts:738000 dts_time:8.2 duration:0 duration_time:0 stream_index:0
[mpeg @ 0x55555c3e7700] buffer underflow st=0 bufi=1569 size=2047
pts:745200 pts_time:8.28 dts:741600 dts_time:8.24 duration:0 duration_time:0 stream_index:0
[mpeg @ 0x55555c3e7700] buffer underflow st=0 bufi=1554 size=2400
pts:748800 pts_time:8.32 dts:745200 dts_time:8.28 duration:0 duration_time:0 stream_index:0
[mpeg @ 0x55555c3e7700] buffer underflow st=0 bufi=1186 size=1849
pts:752400 pts_time:8.36 dts:748800 dts_time:8.32 duration:0 duration_time:0 stream_index:0
[mpeg @ 0x55555c3e7700] buffer underflow st=0 bufi=1369 size=2608
pts:756000 pts_time:8.4 dts:752400 dts_time:8.36 duration:0 duration_time:0 stream_index:0
[mpeg @ 0x55555c3e7700] buffer underflow st=0 bufi=793 size=1808
pts:759600 pts_time:8.44 dts:756000 dts_time:8.4 duration:0 duration_time:0 stream_index:0
[mpeg @ 0x55555c3e7700] buffer underflow st=0 bufi=1017 size=2457
pts:763200 pts_time:8.48 dts:759600 dts_time:8.44 duration:0 duration_time:0 stream_index:0
[mpeg @ 0x55555c3e7700] buffer underflow st=0 bufi=592 size=2049
pts:766800 pts_time:8.52 dts:763200 dts_time:8.48 duration:0 duration_time:0 stream_index:0
[mpeg @ 0x55555c3e7700] buffer underflow st=0 bufi=575 size=10001
[mpeg @ 0x55555c3e7700] buffer underflow st=0 bufi=2616 size=10001
[mpeg @ 0x55555c3e7700] buffer underflow st=0 bufi=4657 size=10001
[mpeg @ 0x55555c3e7700] buffer underflow st=0 bufi=6698 size=10001
[mpeg @ 0x55555c3e7700] buffer underflow st=0 bufi=8739 size=10001
pts:770400 pts_time:8.56 dts:766800 dts_time:8.52 duration:0 duration_time:0 stream_index:0
[mpeg @ 0x55555c3e7700] buffer underflow st=0 bufi=770 size=2015
pts:774000 pts_time:8.6 dts:770400 dts_time:8.56 duration:0 duration_time:0 stream_index:0
[mpeg @ 0x55555c3e7700] buffer underflow st=0 bufi=787 size=2442
pts:777600 pts_time:8.64 dts:774000 dts_time:8.6 duration:0 duration_time:0 stream_index:0
[mpeg @ 0x55555c3e7700] buffer underflow st=0 bufi=377 size=2596
[mpeg @ 0x55555c3e7700] buffer underflow st=0 bufi=2418 size=2596
pts:781200 pts_time:8.68 dts:777600 dts_time:8.64 duration:0 duration_time:0 stream_index:0
[mpeg @ 0x55555c3e7700] buffer underflow st=0 bufi=1854 size=1925
pts:784800 pts_time:8.72 dts:781200 dts_time:8.68 duration:0 duration_time:0 stream_index:0
[mpeg @ 0x55555c3e7700] buffer underflow st=0 bufi=1961 size=2105
pts:788400 pts_time:8.76 dts:784800 dts_time:8.72 duration:0 duration_time:0 stream_index:0
[mpeg @ 0x55555c3e7700] buffer underflow st=0 bufi=1876 size=2616
pts:792000 pts_time:8.8 dts:788400 dts_time:8.76 duration:0 duration_time:0 stream_index:0
[mpeg @ 0x55555c3e7700] buffer underflow st=0 bufi=1292 size=2254
pts:795600 pts_time:8.84 dts:792000 dts_time:8.8 duration:0 duration_time:0 stream_index:0
[mpeg @ 0x55555c3e7700] buffer underflow st=0 bufi=1070 size=2320
pts:799200 pts_time:8.88 dts:795600 dts_time:8.84 duration:0 duration_time:0 stream_index:0
[mpeg @ 0x55555c3e7700] buffer underflow st=0 bufi=782 size=2057
pts:802800 pts_time:8.92 dts:799200 dts_time:8.88 duration:0 duration_time:0 stream_index:0
[mpeg @ 0x55555c3e7700] buffer underflow st=0 bufi=757 size=2162
pts:806400 pts_time:8.96 dts:802800 dts_time:8.92 duration:0 duration_time:0 stream_index:0
[mpeg @ 0x55555c3e7700] buffer underflow st=0 bufi=627 size=1959
pts:810000 pts_time:9 dts:806400 dts_time:8.96 duration:0 duration_time:0 stream_index:0
[mpeg @ 0x55555c3e7700] buffer underflow st=0 bufi=700 size=10426
[mpeg @ 0x55555c3e7700] buffer underflow st=0 bufi=2741 size=10426
[mpeg @ 0x55555c3e7700] buffer underflow st=0 bufi=4782 size=10426
[mpeg @ 0x55555c3e7700] buffer underflow st=0 bufi=6823 size=10426
[mpeg @ 0x55555c3e7700] buffer underflow st=0 bufi=8864 size=10426
pts:813600 pts_time:9.04 dts:810000 dts_time:9 duration:0 duration_time:0 stream_index:0
[mpeg @ 0x55555c3e7700] buffer underflow st=0 bufi=470 size=2718
[mpeg @ 0x55555c3e7700] buffer underflow st=0 bufi=2511 size=2718
pts:817200 pts_time:9.08 dts:813600 dts_time:9.04 duration:0 duration_time:0 stream_index:0
pts:820800 pts_time:9.12 dts:817200 dts_time:9.08 duration:0 duration_time:0 stream_index:0
[mpeg @ 0x55555c3e7700] buffer underflow st=0 bufi=204 size=3064
[mpeg @ 0x55555c3e7700] buffer underflow st=0 bufi=2245 size=3064
pts:824400 pts_time:9.16 dts:820800 dts_time:9.12 duration:0 duration_time:0 stream_index:0
[mpeg @ 0x55555c3e7700] buffer underflow st=0 bufi=1213 size=1785
pts:828000 pts_time:9.2 dts:824400 dts_time:9.16 duration:0 duration_time:0 stream_index:0
[mpeg @ 0x55555c3e7700] buffer underflow st=0 bufi=1460 size=2496
pts:831600 pts_time:9.24 dts:828000 dts_time:9.2 duration:0 duration_time:0 stream_index:0
[mpeg @ 0x55555c3e7700] buffer underflow st=0 bufi=996 size=2678
pts:835200 pts_time:9.28 dts:831600 dts_time:9.24 duration:0 duration_time:0 stream_index:0
[mpeg @ 0x55555c3e7700] buffer underflow st=0 bufi=350 size=2251
pts:838800 pts_time:9.32 dts:835200 dts_time:9.28 duration:0 duration_time:0 stream_index:0
[mpeg @ 0x55555c3e7700] buffer underflow st=0 bufi=131 size=3102
[mpeg @ 0x55555c3e7700] buffer underflow st=0 bufi=2172 size=3102
pts:842400 pts_time:9.36 dts:838800 dts_time:9.32 duration:0 duration_time:0 stream_index:0
[mpeg @ 0x55555c3e7700] buffer underflow st=0 bufi=1102 size=2215
pts:846000 pts_time:9.4 dts:842400 dts_time:9.36 duration:0 duration_time:0 stream_index:0
[mpeg @ 0x55555c3e7700] buffer underflow st=0 bufi=919 size=2847
pts:849600 pts_time:9.44 dts:846000 dts_time:9.4 duration:0 duration_time:0 stream_index:0
[mpeg @ 0x55555c3e7700] buffer underflow st=0 bufi=104 size=2763
[mpeg @ 0x55555c3e7700] buffer underflow st=0 bufi=2145 size=2763
pts:853200 pts_time:9.48 dts:849600 dts_time:9.44 duration:0 duration_time:0 stream_index:0
[mpeg @ 0x55555c3e7700] buffer underflow st=0 bufi=1414 size=10268
[mpeg @ 0x55555c3e7700] buffer underflow st=0 bufi=3455 size=10268
[mpeg @ 0x55555c3e7700] buffer underflow st=0 bufi=5496 size=10268
[mpeg @ 0x55555c3e7700] buffer underflow st=0 bufi=7537 size=10268
[mpeg @ 0x55555c3e7700] buffer underflow st=0 bufi=9578 size=10268
pts:856800 pts_time:9.52 dts:853200 dts_time:9.48 duration:0 duration_time:0 stream_index:0
[mpeg @ 0x55555c3e7700] buffer underflow st=0 bufi=1342 size=2564
pts:860400 pts_time:9.56 dts:856800 dts_time:9.52 duration:0 duration_time:0 stream_index:0
[mpeg @ 0x55555c3e7700] buffer underflow st=0 bufi=810 size=2677
pts:864000 pts_time:9.6 dts:860400 dts_time:9.56 duration:0 duration_time:0 stream_index:0
[mpeg @ 0x55555c3e7700] buffer underflow st=0 bufi=165 size=3026
[mpeg @ 0x55555c3e7700] buffer underflow st=0 bufi=2206 size=3026
pts:867600 pts_time:9.64 dts:864000 dts_time:9.6 duration:0 duration_time:0 stream_index:0
[mpeg @ 0x55555c3e7700] buffer underflow st=0 bufi=1212 size=2505
pts:871200 pts_time:9.68 dts:867600 dts_time:9.64 duration:0 duration_time:0 stream_index:0
[mpeg @ 0x55555c3e7700] buffer underflow st=0 bufi=739 size=2488
pts:874800 pts_time:9.72 dts:871200 dts_time:9.68 duration:0 duration_time:0 stream_index:0
[mpeg @ 0x55555c3e7700] buffer underflow st=0 bufi=283 size=2697
[mpeg @ 0x55555c3e7700] buffer underflow st=0 bufi=2324 size=2697
pts:878400 pts_time:9.76 dts:874800 dts_time:9.72 duration:0 duration_time:0 stream_index:0
[mpeg @ 0x55555c3e7700] buffer underflow st=0 bufi=1659 size=2428
pts:882000 pts_time:9.8 dts:878400 dts_time:9.76 duration:0 duration_time:0 stream_index:0
[mpeg @ 0x55555c3e7700] buffer underflow st=0 bufi=1263 size=2008
pts:885600 pts_time:9.84 dts:882000 dts_time:9.8 duration:0 duration_time:0 stream_index:0
[mpeg @ 0x55555c3e7700] buffer underflow st=0 bufi=1287 size=2447
pts:889200 pts_time:9.88 dts:885600 dts_time:9.84 duration:0 duration_time:0 stream_index:0
[mpeg @ 0x55555c3e7700] buffer underflow st=0 bufi=872 size=1763
pts:892800 pts_time:9.92 dts:889200 dts_time:9.88 duration:0 duration_time:0 stream_index:0
[mpeg @ 0x55555c3e7700] buffer underflow st=0 bufi=1141 size=2169
[mpeg @ 0x55555c3e7700] buffer underflow st=0 bufi=1004 size=10426
[mpeg @ 0x55555c3e7700] buffer underflow st=0 bufi=3045 size=10426
[mpeg @ 0x55555c3e7700] buffer underflow st=0 bufi=5086 size=10426
[mpeg @ 0x55555c3e7700] buffer underflow st=0 bufi=7127 size=10426
[mpeg @ 0x55555c3e7700] buffer underflow st=0 bufi=9168 size=10426
pts:896400 pts_time:9.96 dts:892800 dts_time:9.92 duration:0 duration_time:0 stream_index:0
pts:900000 pts_time:10 dts:896400 dts_time:9.96 duration:0 duration_time:0 stream_index:0
